<svg width="315" height="100" viewBox="0 0 315 100" fill="none" xmlns="http://www.w3.org/2000/svg">
<rect width="315" height="100" fill="#2A2B2D"/>
<path d="M245 10H225V90H305V10H285V70H245V10Z" fill="#0000FF"/>
<path d="M275 10H255V60H275V10Z" fill="#0000FF"/>
<path fill-rule="evenodd" clip-rule="evenodd" d="M135 10H215V60H155V90H135V10ZM195 40V30H155V40H195Z" fill="#00FF00"/>
<path d="M215 90V70H165V90H215Z" fill="#00FF00"/>
<path d="M45 10H125V30H65V70H105V60H75V40H125V90H45V10Z" fill="#FF0000"/>
<path d="M33.9672 68.1768L35 68.1768L35 78.3157L33.9672 78.3157L33.709 76.2427C33.6598 75.8407 33.5615 75.602 33.4139 75.5266C33.2418 75.4512 32.7377 75.4135 31.9016 75.4135L22.6066 75.4135C20.9098 75.4135 19.6803 75.6522 18.918 76.1297C18.1311 76.6071 17.7377 77.3232 17.7377 78.2781C17.7377 78.6801 17.8484 79.1575 18.0697 79.7103C18.2664 80.2631 18.6352 80.8159 19.1762 81.3687C19.7172 81.8964 20.5164 82.3613 21.5738 82.7633L31.9016 82.7633C32.7377 82.7633 33.2418 82.7256 33.4139 82.6502C33.5615 82.5748 33.6598 82.3361 33.709 81.9341L33.9672 79.8611L35 79.8611L35 90L33.9672 90L33.709 87.927C33.6598 87.5249 33.5615 87.2862 33.4139 87.2109C33.2418 87.1355 32.7377 87.0978 31.9016 87.0978L19.3975 87.0978C18.5615 87.0978 18.0697 87.1355 17.9221 87.2109C17.75 87.2862 17.6393 87.5249 17.5902 87.927L17.332 90L16.2992 90L16.2992 82.9895L19.5451 82.9895C18.291 82.2859 17.3811 81.3813 16.8156 80.2757C16.2254 79.1701 15.9303 78.0519 15.9303 76.9212C15.9303 75.5643 16.2746 74.421 16.9631 73.4913C17.6271 72.5364 18.5861 71.858 19.8402 71.456C18.4631 70.7775 17.4672 69.8604 16.8525 68.7045C16.2377 67.5487 15.9303 66.3928 15.9303 65.2369C15.9303 63.4529 16.5082 62.0332 17.6639 60.9778C18.8197 59.9225 20.4549 59.3948 22.5697 59.3948L31.9016 59.3948C32.7377 59.3948 33.2418 59.3571 33.4139 59.2817C33.5615 59.2063 33.6598 58.9676 33.709 58.5656L33.9672 56.4926L35 56.4926L35 66.6315L33.9672 66.6315L33.709 64.5585C33.6598 64.1565 33.5615 63.9177 33.4139 63.8424C33.2418 63.767 32.7377 63.7293 31.9016 63.7293L22.6066 63.7293C20.9098 63.7293 19.6803 63.968 18.918 64.4454C18.1311 64.9228 17.7377 65.639 17.7377 66.5938C17.7377 66.9958 17.8484 67.4733 18.0697 68.0261C18.2664 68.5789 18.6475 69.1317 19.2131 69.6845C19.7787 70.2373 20.6025 70.7147 21.6844 71.1167C21.8074 71.0916 21.9549 71.0791 22.1271 71.0791C22.2746 71.0791 22.4221 71.0791 22.5697 71.0791L31.9016 71.0791C32.7377 71.0791 33.2418 71.0414 33.4139 70.966C33.5615 70.8906 33.6598 70.6519 33.709 70.2498L33.9672 68.1768Z" fill="#EBEBEB"/>
<path d="M13.127 50.1661C13.127 50.945 12.8934 51.5732 12.4262 52.0506C11.9344 52.5281 11.3074 52.7668 10.5451 52.7668C9.78279 52.7668 9.16803 52.5281 8.70082 52.0506C8.2336 51.5732 8 50.945 8 50.1661C8 49.4123 8.2336 48.7841 8.70082 48.2815C9.16803 47.779 9.78279 47.5277 10.5451 47.5277C11.3074 47.5277 11.9344 47.779 12.4262 48.2815C12.8934 48.7841 13.127 49.4123 13.127 50.1661ZM17.332 55.2167L16.2992 55.2167L16.2992 47.98L31.9016 47.98C32.7377 47.98 33.2418 47.9423 33.4139 47.8669C33.5615 47.7915 33.6598 47.5528 33.709 47.1508L33.9672 45.0778L35 45.0778L35 55.2167L33.9672 55.2167L33.709 53.1437C33.6598 52.7416 33.5615 52.5029 33.4139 52.4275C33.2418 52.3522 32.7377 52.3145 31.9016 52.3145L19.3975 52.3145C18.5615 52.3145 18.0697 52.3522 17.9221 52.4275C17.75 52.5029 17.6393 52.7416 17.5902 53.1437L17.332 55.2167Z" fill="#EBEBEB"/>
<path d="M33.9672 21.4222L35 21.4222L35 31.5611L33.9672 31.5611L33.709 29.4881C33.6598 29.086 33.5615 28.8473 33.4139 28.7719C33.2418 28.6966 32.7377 28.6589 31.9016 28.6589L22.6066 28.6589C20.9098 28.6589 19.6803 28.9227 18.918 29.4504C18.1311 29.9529 17.7377 30.7068 17.7377 31.7119C17.7377 32.139 17.8484 32.6416 18.0697 33.2195C18.2664 33.7723 18.6352 34.3377 19.1762 34.9156C19.7172 35.4684 20.5164 35.9584 21.5738 36.3856L31.9016 36.3856C32.7377 36.3856 33.2418 36.3479 33.4139 36.2725C33.5615 36.1971 33.6598 35.9584 33.709 35.5563L33.9672 33.4833L35 33.4833L35 43.6222L33.9672 43.6222L33.709 41.5492C33.6598 41.1472 33.5615 40.9085 33.4139 40.8331C33.2418 40.7577 32.7377 40.72 31.9016 40.72L19.3975 40.72C18.5615 40.72 18.0697 40.7577 17.9221 40.8331C17.75 40.9085 17.6393 41.1472 17.5902 41.5492L17.332 43.6222L16.2992 43.6222L16.2992 36.6117L19.5451 36.6117C18.291 35.883 17.3811 34.9533 16.8156 33.8226C16.2254 32.6667 15.9303 31.5108 15.9303 30.355C15.9303 28.4955 16.5082 27.0256 17.6639 25.9451C18.8197 24.8646 20.4549 24.3244 22.5697 24.3244L31.9016 24.3244C32.7377 24.3244 33.2418 24.2867 33.4139 24.2113C33.5615 24.1359 33.6598 23.8972 33.709 23.4952L33.9672 21.4222Z" fill="#EBEBEB"/>
<path d="M13.127 15.0883C13.127 15.8672 12.8934 16.4954 12.4262 16.9729C11.9344 17.4503 11.3074 17.689 10.5451 17.689C9.78278 17.689 9.16803 17.4503 8.70082 16.9729C8.2336 16.4954 8 15.8672 8 15.0883C8 14.3345 8.2336 13.7063 8.70082 13.2037C9.16803 12.7012 9.78278 12.4499 10.5451 12.4499C11.3074 12.4499 11.9344 12.7012 12.4262 13.2037C12.8934 13.7063 13.127 14.3345 13.127 15.0883ZM17.332 20.1389L16.2992 20.1389L16.2992 12.9022L31.9016 12.9022C32.7377 12.9022 33.2418 12.8645 33.4139 12.7891C33.5615 12.7138 33.6598 12.4751 33.709 12.073L33.9672 10L35 10L35 20.1389L33.9672 20.1389L33.709 18.0659C33.6598 17.6639 33.5615 17.4252 33.4139 17.3498C33.2418 17.2744 32.7377 17.2367 31.9016 17.2367L19.3975 17.2367C18.5615 17.2367 18.0697 17.2744 17.9221 17.3498C17.75 17.4252 17.6393 17.6639 17.5902 18.0659L17.332 20.1389Z" fill="#EBEBEB"/>
</svg>
